<?xml version="1.0" encoding="UTF-8"?>
<svg id="Layer_2" data-name="Layer 2" xmlns="http://www.w3.org/2000/svg" viewBox="0 0 1481.88 398.75">
  <defs>
    <style>
      .cls-1 {
        fill: #18344d;
      }

      .cls-2 {
        fill: #fff;
      }
    </style>
  </defs>
  <g id="Layer_1-2" data-name="Layer 1">
    <g>
      <path class="cls-1" d="M343.13,93.13c-7.4-17.88-18.53-34.33-33.09-48.89-14.56-14.56-31.01-25.69-48.89-33.09C243.27,3.75,223.75,0,203.13,0s-40.14,3.75-58.02,11.14c-17.88,7.4-34.33,18.53-48.89,33.09-10.93,10.94-19.93,22.95-26.87,35.84H19.29c-8.5,0-15.4,6.89-15.4,15.4s6.89,15.4,15.4,15.4h104.5c8.41,0,14.32,8.28,11.58,16.23-.03.08-.06.17-.09.25-1.68,4.96-6.35,8.28-11.58,8.28H36.57c-8.5,0-15.4,6.89-15.4,15.4s6.89,15.4,15.4,15.4h87.1c5.26,0,9.97,3.31,11.69,8.28.03.09.06.17.09.26,2.82,8.06-3.15,16.5-11.69,16.5H15.4c-8.5,0-15.4,6.89-15.4,15.4h0c0,8.5,6.89,15.4,15.4,15.4h36.59v121.1c0,14.97,5.62,28.51,16.26,39.14,10.64,10.64,24.17,16.26,39.14,16.26s28.51-5.62,39.14-16.26c10.64-10.64,16.26-24.17,16.26-39.14v-46.25c12.81,3.45,26.28,5.18,40.34,5.18,20.62,0,40.14-3.75,58.01-11.14,17.89-7.4,34.34-18.53,48.89-33.09,14.56-14.56,25.69-31.01,33.09-48.89,7.39-17.88,11.14-37.4,11.14-58.02s-3.75-40.14-11.14-58.01ZM215.99,221.19c14.31-2.44,26.88-8.8,37.67-19.65,13.91-13.99,20.86-30.87,20.86-50.65s-6.95-36.61-20.86-50.52c-13.91-13.91-30.7-20.45-50.48-20.45-3.22,0-6.38-.07-9.45.03l-70.04.11c-7.26,0-10.95-8.78-5.83-13.92.04-.05.09-.09.13-.14,23.47-23.47,51.85-35.21,85.13-35.21s61.66,11.74,85.13,35.21c23.47,23.48,35.21,51.86,35.21,85.13s-11.74,61.67-35.21,85.14c-23.47,23.47-51.85,35.21-85.13,35.21-26.85,0-50.56-7.72-71.14-23.15v95.02c0,6.75-2.41,12.54-7.24,17.37-4.82,4.82-10.62,7.24-17.37,7.24s-12.54-2.41-17.37-7.24c-4.82-4.82-7.24-10.62-7.24-17.37v-7.33c0-62.83,50.94-113.77,113.77-113.77h0c2.16.18,4.41-.06,6.64-.06s4.37-.12,6.52-.3"/>
      <path class="cls-2" d="M343.13,93.13c-7.4-17.88-18.53-34.33-33.09-48.89-14.56-14.56-31.01-25.69-48.89-33.09C243.27,3.75,223.75,0,203.13,0s-40.14,3.75-58.02,11.14c-17.88,7.4-34.33,18.53-48.89,33.09-10.93,10.94-19.93,22.95-26.87,35.84H19.29c-8.5,0-15.4,6.89-15.4,15.4s6.89,15.4,15.4,15.4h104.5c8.41,0,14.32,8.28,11.58,16.23-.03.08-.06.17-.09.25-1.68,4.96-6.35,8.28-11.58,8.28H36.57c-8.5,0-15.4,6.89-15.4,15.4s6.89,15.4,15.4,15.4h87.1c5.26,0,9.97,3.31,11.69,8.28.03.09.06.17.09.26,2.82,8.06-3.15,16.5-11.69,16.5H15.4c-8.5,0-15.4,6.89-15.4,15.4h0c0,8.5,6.89,15.4,15.4,15.4h36.59v121.1c0,14.97,5.62,28.51,16.26,39.14,10.64,10.64,24.17,16.26,39.14,16.26s28.51-5.62,39.14-16.26c10.64-10.64,16.26-24.17,16.26-39.14v-46.25c12.81,3.45,26.28,5.18,40.34,5.18,20.62,0,40.14-3.75,58.01-11.14,17.89-7.4,34.34-18.53,48.89-33.09,14.56-14.56,25.69-31.01,33.09-48.89,7.39-17.88,11.14-37.4,11.14-58.02s-3.75-40.14-11.14-58.01ZM215.99,221.19c14.31-2.44,26.88-8.8,37.67-19.65,13.91-13.99,20.86-30.87,20.86-50.65s-6.95-36.61-20.86-50.52c-13.91-13.91-30.7-20.45-50.48-20.45-3.22,0-6.38-.07-9.45.03l-70.04.11c-7.26,0-10.95-8.78-5.83-13.92.04-.05.09-.09.13-.14,23.47-23.47,51.85-35.21,85.13-35.21s61.66,11.74,85.13,35.21c23.47,23.48,35.21,51.86,35.21,85.13s-11.74,61.67-35.21,85.14c-23.47,23.47-51.85,35.21-85.13,35.21-26.85,0-50.56-7.72-71.14-23.15v95.02c0,6.75-2.41,12.54-7.24,17.37-4.82,4.82-10.62,7.24-17.37,7.24s-12.54-2.41-17.37-7.24c-4.82-4.82-7.24-10.62-7.24-17.37v-7.33c0-62.83,50.94-113.77,113.77-113.77h0c2.16.18,4.41-.06,6.64-.06s4.37-.12,6.52-.3"/>
    </g>
    <path class="cls-2" d="M438.2,313.18c-13.44,0-25.16-2.83-35.17-8.5-10.02-5.66-17.72-13.1-23.12-22.33-5.4-9.22-7.97-19.23-7.71-30.03,0-11.85,3.49-22.33,10.47-31.42,6.98-9.09,16.07-16,27.27-20.75,11.19-4.74,23.64-6.72,37.34-5.93,13.7.79,27.53,5.01,41.49,12.65l13.04,6.72-1.19,19.76-14.23-6.32c-11.33-5.27-21.93-8.23-31.81-8.89-9.88-.66-18.51.39-25.88,3.16-7.38,2.77-13.11,6.79-17.19,12.05-4.09,5.27-6.12,11.46-6.12,18.57,0,10.01,3.56,18.25,10.67,24.7,7.11,6.46,16.86,9.68,29.24,9.68,5.27,0,10.93-.85,16.99-2.57,6.06-1.71,11.66-4.48,16.79-8.3,5.14-3.82,9.29-8.62,12.45-14.42,3.16-5.79,4.74-12.65,4.74-20.55v-54.93c0-15.28-3.62-26.48-10.87-33.59-7.25-7.11-17.33-10.67-30.23-10.67-3.69,0-7.97.53-12.84,1.58-4.88,1.06-10.15,2.96-15.81,5.73-5.67,2.77-11.4,6.66-17.19,11.66-3.69,2.9-7.18,4.35-10.47,4.35s-6.12-.92-8.5-2.77c-2.37-1.84-4.02-4.21-4.94-7.11-.93-2.9-.93-5.99,0-9.29.92-3.29,3.09-6.25,6.52-8.89,6.58-6.06,13.76-10.87,21.54-14.42,7.77-3.56,15.41-6.06,22.92-7.51,7.51-1.44,14.03-2.04,19.56-1.78,16.33,0,30.16,2.77,41.49,8.3,11.32,5.53,19.89,13.97,25.69,25.29,5.79,11.33,8.69,25.82,8.69,43.47v105.11c0,5.27-1.45,9.48-4.35,12.65-2.9,3.16-7.11,4.74-12.65,4.74-3.95,0-7.25-.66-9.88-1.98-2.64-1.31-4.61-3.29-5.93-5.93-1.32-2.63-1.98-5.66-1.98-9.09v-20.94h3.56c-2.11,9.75-6.19,17.46-12.25,23.12-6.06,5.67-13.31,9.68-21.73,12.05-8.43,2.37-17.92,3.56-28.45,3.56Z"/>
    <path class="cls-2" d="M647.25,313.58c-14.23,0-25.29-2.51-33.19-7.51-7.9-5-13.44-12.65-16.6-22.92-3.16-10.27-4.74-23.44-4.74-39.52v-96.82h-18.97c-5.01,0-8.83-1.38-11.46-4.15-2.64-2.77-3.95-6.38-3.95-10.87s1.31-8.03,3.95-10.67,6.45-3.95,11.46-3.95h18.97v-39.91c0-6.32,1.58-11.06,4.74-14.23s7.64-4.74,13.44-4.74,9.81,1.58,12.84,4.74c3.03,3.16,4.54,7.9,4.54,14.23v39.91h25.69c5,0,8.82,1.32,11.46,3.95,2.63,2.64,3.95,6.19,3.95,10.67s-1.32,8.1-3.95,10.87c-2.64,2.77-6.46,4.15-11.46,4.15h-25.69v93.66c0,9.48.4,17.39,1.19,23.71.79,6.32,2.9,11,6.32,14.03,3.42,3.03,8.82,4.42,16.2,4.15,3.16-.26,5.53-.65,7.11-1.19,1.58-.53,3.56-.92,5.93-1.19,2.11,0,4.15.4,6.12,1.19,1.98.79,3.69,2.11,5.14,3.95,1.44,1.85,2.43,4.09,2.96,6.72.52,3.16,0,6.39-1.58,9.68-1.58,3.3-4.35,5.73-8.3,7.31-3.43,1.31-7.25,2.43-11.46,3.36-4.22.92-7.77,1.38-10.67,1.38Z"/>
    <path class="cls-2" d="M729.83,312.39c-5.8,0-10.21-1.65-13.24-4.94-3.03-3.29-4.54-7.96-4.54-14.03V62.25c0-6.32,1.51-11.26,4.54-14.82,3.03-3.56,7.44-5.33,13.24-5.33s10.6,1.78,13.63,5.33c3.03,3.56,4.54,8.5,4.54,14.82v96.42h-5.53c5.79-14.75,14.88-25.95,27.27-33.59,12.38-7.64,26.61-11.46,42.68-11.46s28.19,2.77,37.94,8.3c9.74,5.53,17.05,14.03,21.93,25.49,4.87,11.46,7.31,25.75,7.31,42.88v103.14c0,6.06-1.65,10.74-4.94,14.03-3.3,3.29-7.58,4.94-12.84,4.94-5.8,0-10.28-1.65-13.44-4.94-3.16-3.29-4.74-7.96-4.74-14.03v-100.77c0-17.12-3.3-29.57-9.88-37.34-6.59-7.77-16.99-11.66-31.22-11.66-16.6,0-29.84,5.14-39.72,15.41-9.88,10.27-14.82,24.11-14.82,41.49v92.86c0,12.65-6.06,18.97-18.18,18.97Z"/>
    <path class="cls-2" d="M997.36,313.18c-6.85,0-14.42-.99-22.72-2.96s-16.4-5-24.3-9.09c-7.9-4.08-14.89-9.42-20.94-16-2.9-2.9-4.54-5.99-4.94-9.29-.4-3.29.06-6.25,1.38-8.89,1.32-2.63,3.22-4.74,5.73-6.32,2.5-1.58,5.27-2.24,8.3-1.98,3.03.27,5.86,1.72,8.5,4.35,8.95,8.96,17.65,14.89,26.08,17.78,8.43,2.9,16.33,4.35,23.71,4.35,14.23,0,24.63-2.5,31.22-7.51,6.58-5,9.88-11.86,9.88-20.55,0-6.58-2.04-11.86-6.12-15.81-4.09-3.95-11.13-6.98-21.14-9.09l-36.75-7.9c-16.6-3.42-28.98-9.61-37.15-18.57-8.17-8.95-12.25-20.28-12.25-33.98,0-11.59,3.22-21.8,9.68-30.63,6.45-8.82,15.47-15.61,27.07-20.35,11.59-4.74,25.03-7.11,40.31-7.11,11.59,0,22.78,2.11,33.59,6.32,10.8,4.22,20.02,11.06,27.66,20.55,2.37,2.9,3.56,5.87,3.56,8.89s-.73,5.8-2.17,8.3c-1.45,2.51-3.36,4.48-5.73,5.93-2.37,1.45-5.01,1.98-7.9,1.58-2.9-.4-5.8-2.04-8.69-4.94-6.59-7.37-13.24-12.31-19.96-14.82-6.72-2.5-13.5-3.75-20.35-3.75-12.65,0-22.66,2.57-30.03,7.71-7.38,5.14-11.06,12.19-11.06,21.14,0,6.06,1.91,11.4,5.73,16,3.82,4.61,10.34,7.84,19.56,9.68l37.15,7.51c16.86,3.43,29.57,9.95,38.13,19.56,8.56,9.62,12.84,20.49,12.84,32.6s-3.23,22.13-9.68,30.82c-6.46,8.69-15.48,15.41-27.07,20.15-11.6,4.74-25.29,6.85-41.1,6.32Z"/>
    <path class="cls-2" d="M1204.03,313.18c-20.81,0-38.67-4.01-53.55-12.05-14.89-8.03-26.35-19.49-34.38-34.38-8.04-14.88-12.05-32.6-12.05-53.15,0-15.02,2.3-28.58,6.92-40.7,4.61-12.11,11.19-22.65,19.76-31.61,8.56-8.95,18.57-15.81,30.03-20.55,11.46-4.74,24.04-7.11,37.74-7.11,17.91,0,33.45,3.82,46.63,11.46,13.17,7.64,23.44,17.92,30.82,30.82,7.37,12.91,11.06,27.4,11.06,43.47,0,5.01-1.06,8.96-3.16,11.85-2.11,2.9-5.14,5.08-9.09,6.52-3.95,1.45-8.56,2.7-13.83,3.75-11.06,2.37-22.79,3.95-35.17,4.74-12.39.79-26.08,1.38-41.1,1.78s-32.27.73-51.77.99l.79-27.66h44.06c14.88,0,29.37-.72,43.47-2.17,14.09-1.44,26.93-3.88,38.53-7.31l-6.32,5.14c.26-16.6-4.74-29.64-15.02-39.12-10.27-9.48-23.58-14.23-39.91-14.23-12.65,0-23.25,2.64-31.81,7.9-8.56,5.27-15.02,12.71-19.36,22.33-4.35,9.62-6.66,21.01-6.92,34.18l-.4,5.14c-.27,16.07,2.3,29.31,7.71,39.71,5.4,10.41,12.97,18.12,22.72,23.12,9.74,5.01,21.07,7.51,33.99,7.51,8.16,0,15.87-.99,23.12-2.96,7.24-1.98,14.95-5.59,23.12-10.87,3.69-2.11,7.04-3.03,10.08-2.77,3.03.27,5.66,1.32,7.9,3.16,2.24,1.85,3.75,4.22,4.54,7.11.79,2.9.59,5.87-.59,8.89-1.18,3.03-3.62,5.73-7.31,8.1-7.9,5.8-17.33,10.41-28.25,13.83-10.94,3.42-21.93,5.14-33,5.14Z"/>
    <path class="cls-2" d="M1417.02,313.18c-19.5,0-36.75-4.21-51.77-12.65-15.02-8.43-26.81-20.22-35.37-35.37-8.56-15.15-12.84-32.86-12.84-53.15,0-15.02,2.43-28.58,7.31-40.7,4.87-12.11,11.72-22.46,20.55-31.02,8.82-8.56,19.36-15.15,31.61-19.76,12.25-4.61,25.75-6.92,40.5-6.92,9.22,0,18.97,1.45,29.24,4.35,10.27,2.9,19.76,7.77,28.45,14.62,3.16,2.37,5.27,5.14,6.32,8.3,1.05,3.16,1.12,6.26.2,9.29-.93,3.03-2.51,5.53-4.74,7.51-2.24,1.98-5.08,3.03-8.5,3.16-3.43.14-6.98-1.12-10.67-3.75-6.32-5-12.58-8.43-18.77-10.27-6.19-1.84-12.45-2.77-18.77-2.77-9.75,0-18.71,1.52-26.87,4.54-8.17,3.03-15.28,7.51-21.34,13.44-6.06,5.93-10.81,13.11-14.23,21.54-3.43,8.43-5.14,18.05-5.14,28.85,0,14.49,2.96,26.94,8.89,37.34,5.93,10.41,13.96,18.44,24.11,24.11,10.14,5.67,21.67,8.5,34.58,8.5,6.32,0,12.58-.92,18.77-2.77,6.19-1.84,12.71-5.4,19.56-10.67,3.16-2.37,6.19-3.36,9.09-2.96,2.9.39,5.46,1.58,7.71,3.56,2.24,1.98,3.82,4.41,4.74,7.31.92,2.9,1.05,5.87.39,8.89-.66,3.03-2.57,5.73-5.73,8.1-8.69,7.11-18.12,12.12-28.25,15.02-10.14,2.9-19.83,4.35-29.04,4.35Z"/>
  </g>
</svg>