<?xml version="1.0" encoding="UTF-8"?>
<svg id="Layer_2" data-name="Layer 2" xmlns="http://www.w3.org/2000/svg" viewBox="0 0 170.12 49.98">
  <defs>
    <style>
      .cls-1 {
        fill: #fff;
      }
    </style>
  </defs>
  <g id="Layer_1-2" data-name="Layer 1">
    <path class="cls-1" d="M1.69,28.1c.13-.2.27-.47.34-.74,1.35-5.59,2.69-11.19,3.97-16.84C7.28,4.79,11.2,1.76,16.65.54c3.24-.74,6.6-.47,9.7.27,3.97.94,6.67,3.43,6.06,8.69-.4,3.71-1.35,7.34-2.09,10.98-.6,2.77-1.21,5.59-1.82,8.36-.07.2-.13.4-.2.6h-8.02c.6-2.77,1.15-5.52,1.75-8.36h-9.57c.27-.34.4-.47.54-.68,1.41-1.55,2.9-3.1,4.31-4.65.47-.6,1.28-.94,2.09-.88,1.35.07,2.77,0,4.31,0,.2-1.88.4-3.64.47-5.46.13-1.35-.81-2.56-2.09-2.77-1.01-.2-2.02-.27-3.1-.2-2.96.13-4.92,1.82-5.46,4.78-.94,4.65-1.82,9.23-2.77,13.88-.27,1.49-.54,3.03-.88,4.52h-.34c-.27-.07-.6-.13-.88-.13H1.69v-1.41ZM101.4,29.65c-.2-.13-.4-.27-.68-.34-1.68-.27-3.3-.88-4.78-1.82-3.84-2.63-4.85-7.08-2.69-11.25,1.75-3.37,4.65-5.52,8.15-6.87,4.18-1.62,8.29-1.82,12.39.07,5.18,2.36,6.8,7.95,3.77,12.73-2.69,4.18-6.67,6.27-11.39,7.14-.34.07-.68.2-1.01.34h-3.77ZM100.32,19.68c.07,1.28.74,2.22,2.02,2.83,2.76,1.41,6.47-.07,7.82-2.02,1.55-2.29.74-4.85-1.96-5.59-2.56-.68-4.78,0-6.67,1.88-.81.74-1.28,1.82-1.21,2.9ZM42.59,29.51c-.68-.13-1.28-.27-1.96-.4-3.3-1.01-5.39-3.91-5.66-7.61-.27-5.32,2.09-9.02,7.14-11.39,2.22-1.08,4.58-1.62,7.01-1.75,3.17-.07,6.33,0,9.63,0-.07.68-.13,1.28-.2,1.88-.2,1.21-.4,2.49-.54,3.71-.07.81-.34,1.15-1.21,1.08-2.56-.07-5.19,0-7.75,0-1.68,0-3.3.6-4.52,1.75-1.21,1.15-1.55,2.56-1.01,4.24.47,1.35,1.55,2.02,3.24,2.09,2.56.07,5.12.07,7.61.07h1.28l-1.21,6.47h-3.77c-.13-.07-.34-.13-.54-.2-2.49.07-4.99.07-7.55.07h-.01ZM67.38,29.65c-.07-.07-.2-.2-.27-.27-3.97-1.15-6.06-4.24-5.25-8.36,1.21-6.27,2.49-12.47,3.77-18.66.07-.81.2-1.55.34-2.36h.34c.27.07.6.13.88.13h7.01c-.2,1.75-.34,3.57-.54,5.32,0,.27-.07.54-.07.74-.07,1.82.47,2.36,2.29,2.43h1.88c-.27,1.68-.54,3.24-.88,4.78v.07c-.27,1.3-1.08,1.96-2.43,1.96-1.01,0-2.09-.07-3.1,0-.34.07-.68.27-.88.6-.34,1.35-.6,2.69-.74,4.05-.2,2.16,1.01,3.3,3.17,3.24.4,0,.81-.07,1.35-.07-.2,1.41-.34,2.77-.47,4.11v.2c-.18,1.08-.81,1.71-1.88,1.88-.07,0-.2.13-.27.2h-4.25ZM154.83,29.51c.54-2.49,1.01-4.99,1.62-7.55,1.01-4.71,2.09-9.43,3.1-14.22.07-.27.07-.54.13-.94h-4.78c.07-.27.2-.54.34-.74,1.08-1.75,2.15-3.5,3.3-5.19.27-.34.6-.54,1.01-.6,3.43-.07,6.87,0,10.31,0,.07,0,.2.07.27.07v1.01c-.13.2-.27.4-.34.68-1.62,6.74-3.24,13.54-4.78,20.34-.54,2.36-1.15,4.78-1.75,7.14h-8.42ZM78.36,29.65c.54-2.77,1.01-5.52,1.55-8.29.74-3.91,1.62-7.75,2.36-11.66.13-.74.47-1.15,1.28-1.08,2.29.07,4.58,0,7.01,0-.07.54-.13.94-.2,1.35-1.35,6.4-2.69,12.8-4.04,19.27v.4h-7.96ZM147.55,29.45l-7.68.07,1.28-7.48c.13-.68.27-1.35.34-2.02.54-2.96-1.28-5.05-4.31-4.99-3.17.07-5.59,2.02-6.33,5.05-.68,3.03-1.28,6.27-1.88,9.36h-8.69c.94-3.5,1.75-7.01,2.76-10.51.94-3.03,2.56-5.73,5.18-7.68,1.96-1.41,4.24-2.29,6.67-2.43,3.37-.27,6.74-.27,9.97,1.01,4.04,1.55,6,4.92,5.12,9.23-.6,3.43-1.55,6.87-2.43,10.38h0ZM84.7.14l7.75.07c-.47,2.02-.94,4.04-1.41,5.99L84.7.14Z"/>
    <path class="cls-1" d="M3.39,39.15l-1.86,10.73H0l2.18-12.57h1.39l-.18,1.84ZM8.85,41.73l-.02.18c-.07.55-.21,1.1-.4,1.66-.19.55-.45,1.06-.78,1.52-.33.46-.74.82-1.22,1.1-.48.27-1.03.4-1.68.39-.56-.01-1.05-.13-1.45-.37-.4-.24-.73-.56-.97-.95-.25-.4-.42-.84-.53-1.33-.1-.49-.13-1-.1-1.51l.12-.93c.1-.55.25-1.08.48-1.6.23-.53.52-1,.87-1.42.35-.42.77-.75,1.25-.98.49-.24,1.04-.35,1.65-.34.62.02,1.12.17,1.51.45.39.28.69.65.89,1.1.21.45.34.94.39,1.47.05.53.05,1.05,0,1.56ZM7.31,41.9l.03-.18c.04-.34.05-.69.03-1.07-.02-.37-.09-.72-.21-1.05-.12-.33-.3-.6-.56-.81-.25-.21-.6-.32-1.03-.34-.35-.01-.68.05-.99.18-.31.12-.59.3-.84.53-.25.22-.47.48-.65.78-.18.29-.31.6-.39.92l-.36,2.19c0,.4.08.77.26,1.11.18.34.42.61.73.81.31.21.67.32,1.07.33.46.01.87-.08,1.21-.28.35-.2.64-.47.87-.81.23-.34.42-.71.56-1.12.14-.41.23-.81.29-1.2ZM16.32,44.84l.75-4.69c.04-.35,0-.65-.1-.91-.1-.26-.27-.47-.51-.61-.23-.15-.53-.22-.89-.23-.31,0-.62.04-.92.15-.3.11-.55.27-.77.48-.22.21-.36.48-.43.81h-1.51c.04-.44.18-.84.43-1.17.25-.34.55-.62.92-.85.37-.23.77-.4,1.19-.5.43-.11.84-.16,1.24-.16.61.01,1.14.14,1.59.39.45.25.79.59,1.02,1.04.23.45.31.98.25,1.61l-.7,4.23c-.05.31-.08.62-.09.93,0,.31.03.61.11.91l-.02.14h-1.54c-.06-.25-.09-.51-.09-.77,0-.26.03-.52.06-.78ZM17.25,40.89l-.18,1.09h-1.43c-.3,0-.62.01-.96.06-.34.04-.65.13-.96.25-.3.12-.56.3-.76.54-.21.23-.33.53-.38.9-.03.3,0,.56.11.79.11.22.28.39.5.51.22.12.48.19.78.19.39,0,.77-.07,1.14-.23.37-.16.7-.38.98-.67.28-.29.47-.63.58-1.01l.55.75c-.11.37-.28.71-.52,1.02-.24.31-.53.57-.86.8-.32.22-.67.4-1.05.52-.37.12-.75.18-1.12.18-.51-.01-.97-.13-1.38-.34-.41-.22-.73-.52-.97-.91-.23-.4-.34-.86-.3-1.38.03-.58.18-1.06.45-1.45.27-.39.61-.7,1.03-.94.43-.23.89-.4,1.39-.5.5-.11,1-.16,1.49-.16h1.85ZM26.05,37.31l-.21,1.19h-4.77l.21-1.19h4.77ZM23.27,35.11h1.51l-1.54,9.05c-.02.2-.01.37.02.53.03.16.1.28.2.38.11.09.27.14.49.14.12,0,.24,0,.36-.03.12-.02.25-.04.37-.06l-.11,1.28c-.18.05-.36.09-.55.11-.18.03-.37.04-.55.03-.46,0-.83-.12-1.09-.35-.26-.23-.44-.53-.54-.89-.1-.36-.12-.75-.08-1.17l1.52-9.03ZM30.87,45.29c.37,0,.71-.06,1.03-.21.32-.15.59-.35.81-.62.22-.27.38-.58.48-.93h1.44c-.09.6-.33,1.14-.71,1.59-.38.46-.85.82-1.4,1.07-.55.25-1.12.37-1.72.36-.64-.01-1.18-.14-1.63-.39-.44-.26-.8-.6-1.07-1.02-.27-.43-.45-.9-.55-1.43-.1-.54-.12-1.09-.07-1.65l.03-.36c.07-.61.22-1.19.44-1.74.23-.55.53-1.04.91-1.47.39-.43.84-.77,1.37-1.01.53-.24,1.12-.35,1.77-.34.64.01,1.19.16,1.66.45.47.29.83.67,1.09,1.17.26.49.39,1.05.39,1.68h-1.43c0-.37-.08-.7-.21-1s-.33-.55-.6-.73c-.26-.18-.59-.29-.97-.3-.46-.01-.87.08-1.22.26-.34.18-.63.44-.87.76-.23.32-.42.67-.56,1.07-.13.39-.23.79-.28,1.19l-.04.35c-.03.36-.04.72-.02,1.1.03.37.11.72.23,1.05.13.32.33.58.6.78.27.2.63.31,1.07.32ZM40.43,33.51l-2.24,12.89h-1.52l2.24-12.89h1.52ZM38.71,41.51l-.62-.02c.08-.54.22-1.07.43-1.59.21-.53.49-1,.83-1.42.35-.42.76-.75,1.23-.99.48-.25,1.03-.36,1.64-.34.49.01.89.11,1.22.29.33.17.59.41.77.71.18.3.31.65.37,1.05.06.39.07.81.02,1.25l-.99,5.95h-1.53l1.01-5.97c.04-.36.03-.69-.04-.98-.06-.3-.2-.53-.42-.7-.21-.18-.52-.27-.92-.29-.43-.01-.81.07-1.15.24-.34.17-.64.41-.9.71-.25.3-.46.63-.62,1-.16.36-.27.73-.33,1.11ZM49.93,37.31l-1.58,9.08h-1.52l1.58-9.08h1.52ZM48.71,34.93c0-.26.08-.48.24-.65.17-.18.38-.27.65-.28.26,0,.48.08.65.24.17.17.26.38.25.64,0,.26-.09.47-.26.65-.17.17-.38.25-.64.26s-.47-.07-.64-.23c-.17-.16-.25-.37-.25-.63ZM54.37,39.35l-1.22,7.05h-1.52l1.58-9.08h1.43l-.27,2.03ZM53.66,41.51l-.62-.02c.08-.54.22-1.07.43-1.59.21-.53.49-1,.83-1.42.35-.42.76-.75,1.23-.99.48-.25,1.03-.36,1.64-.34.49.01.89.11,1.22.29.33.17.59.41.77.71.18.3.31.65.37,1.05.06.39.07.81.02,1.25l-.99,5.95h-1.53l1.01-5.97c.04-.36.03-.69-.04-.98-.06-.3-.2-.53-.42-.7-.21-.18-.52-.27-.92-.29-.43-.01-.81.07-1.15.24-.34.17-.64.41-.9.71-.25.3-.46.63-.62,1-.16.36-.27.73-.33,1.11ZM68.97,37.31h1.39l-1.52,8.88c-.11.75-.35,1.42-.73,2-.37.58-.87,1.02-1.48,1.34-.6.32-1.29.47-2.07.45-.41-.01-.81-.08-1.2-.21-.39-.13-.75-.31-1.08-.55-.33-.23-.61-.52-.83-.86l.87-.91c.26.37.57.67.93.89.36.22.78.34,1.24.36.51.01.96-.08,1.35-.29.4-.2.72-.48.96-.85.25-.37.42-.8.49-1.3l1.19-7.04.47-1.92ZM62.11,42.02l.03-.18c.07-.56.2-1.12.39-1.68.2-.56.47-1.07.81-1.53.34-.46.75-.83,1.23-1.1.49-.27,1.05-.41,1.7-.39.59.02,1.08.15,1.47.41.39.26.7.6.92,1.02.23.42.38.88.46,1.38.08.5.11,1.01.08,1.52l-.09.77c-.1.54-.25,1.07-.47,1.59-.22.52-.5.99-.85,1.41-.35.41-.76.74-1.24.98-.48.24-1.02.35-1.63.34-.6-.02-1.09-.18-1.48-.46-.39-.29-.69-.65-.9-1.1-.21-.45-.35-.94-.41-1.46-.06-.53-.07-1.03-.02-1.53ZM63.67,41.83l-.03.18c-.04.34-.05.69-.03,1.06.02.37.08.72.19,1.05.11.32.29.59.54.81.25.21.59.32,1.02.33.46.02.88-.08,1.28-.3.39-.22.73-.51,1.01-.87.28-.36.48-.76.6-1.18l.33-2.04c.02-.31-.02-.6-.11-.89-.09-.29-.22-.54-.4-.76-.17-.22-.39-.4-.64-.54-.25-.13-.54-.2-.86-.21-.47-.02-.88.08-1.22.28-.34.2-.63.46-.86.8-.23.34-.41.7-.55,1.11-.13.4-.23.8-.28,1.19ZM82.28,37.31l-.21,1.19h-4.77l.21-1.19h4.77ZM79.5,35.11h1.51l-1.54,9.05c-.02.2-.01.37.02.53.03.16.1.28.2.38.11.09.27.14.49.14.12,0,.24,0,.36-.03.12-.02.25-.04.37-.06l-.11,1.28c-.18.05-.36.09-.55.11-.18.03-.37.04-.55.03-.46,0-.83-.12-1.09-.35-.26-.23-.44-.53-.54-.89-.1-.36-.12-.75-.08-1.17l1.52-9.03ZM87.08,33.51l-2.24,12.89h-1.52l2.24-12.89h1.52ZM85.36,41.51l-.62-.02c.08-.54.22-1.07.43-1.59.21-.53.49-1,.83-1.42.35-.42.76-.75,1.23-.99.48-.25,1.03-.36,1.64-.34.49.01.89.11,1.22.29.33.17.59.41.77.71.18.3.31.65.37,1.05.06.39.07.81.02,1.25l-.99,5.95h-1.53l1.01-5.97c.04-.36.03-.69-.04-.98-.06-.3-.2-.53-.42-.7-.21-.18-.52-.27-.92-.29-.43-.01-.81.07-1.15.24s-.64.41-.9.71c-.25.3-.46.63-.62,1-.16.36-.27.73-.33,1.11ZM98.84,44.84l.76-4.69c.04-.35,0-.65-.1-.91-.1-.26-.27-.47-.51-.61-.23-.15-.53-.22-.89-.23-.31,0-.62.04-.92.15-.3.11-.55.27-.77.48-.22.21-.36.48-.43.81h-1.51c.04-.44.18-.84.43-1.17.25-.34.55-.62.92-.85.37-.23.77-.4,1.19-.5.43-.11.84-.16,1.24-.16.61.01,1.14.14,1.59.39.45.25.79.59,1.02,1.04.23.45.31.98.25,1.61l-.7,4.23c-.05.31-.08.62-.09.93,0,.31.03.61.11.91l-.02.14h-1.54c-.06-.25-.09-.51-.09-.77,0-.26.03-.52.06-.78ZM99.77,40.89l-.18,1.09h-1.43c-.3,0-.62.01-.96.06-.34.04-.65.13-.96.25-.3.12-.56.3-.76.54-.21.23-.33.53-.38.9-.03.3,0,.56.11.79.11.22.28.39.5.51.22.12.48.19.78.19.39,0,.77-.07,1.14-.23.37-.16.7-.38.98-.67.28-.29.47-.63.58-1.01l.55.75c-.11.37-.28.71-.52,1.02-.24.31-.53.57-.86.8-.32.22-.67.4-1.05.52-.37.12-.75.18-1.12.18-.51-.01-.97-.13-1.38-.34-.41-.22-.73-.52-.97-.91-.23-.4-.34-.86-.3-1.38.03-.58.18-1.06.45-1.45.27-.39.61-.7,1.03-.94.43-.23.89-.4,1.39-.5.5-.11,1-.16,1.49-.16h1.85ZM108.57,37.31l-.21,1.19h-4.77l.21-1.19h4.77ZM105.79,35.11h1.51l-1.54,9.05c-.02.2-.01.37.02.53.03.16.09.28.2.38.11.09.27.14.49.14.12,0,.24,0,.36-.03.12-.02.25-.04.37-.06l-.11,1.28c-.18.05-.36.09-.55.11-.18.03-.37.04-.55.03-.46,0-.83-.12-1.09-.35-.26-.23-.44-.53-.54-.89-.1-.36-.12-.75-.08-1.17l1.52-9.03ZM117.21,44.71l3.52-7.39h1.05l-.49,1.57-3.57,7.51h-1.02l.51-1.69ZM116.96,37.31l.63,7.64-.13,1.43h-.99l-.98-9.08h1.47ZM122.63,44.72l3.1-7.41h1.56l-4.13,9.08h-1.07l.54-1.67ZM121.96,37.31l.96,7.43-.05,1.64h-.93l-1.06-7.7.06-1.38h1.02ZM128.48,42l.02-.19c.07-.61.22-1.2.45-1.76.24-.56.56-1.07.95-1.51.39-.44.86-.79,1.39-1.04s1.13-.37,1.79-.35c.64.01,1.18.15,1.64.41.46.26.83.61,1.11,1.05.29.43.48.92.6,1.46s.14,1.1.08,1.68l-.02.19c-.07.61-.23,1.19-.47,1.75-.24.56-.56,1.06-.96,1.49-.39.44-.86.78-1.39,1.03-.54.25-1.13.36-1.79.34-.63-.01-1.18-.15-1.64-.4-.45-.26-.82-.61-1.1-1.04-.28-.43-.48-.91-.59-1.45-.11-.54-.14-1.09-.09-1.66ZM130.01,41.81l-.02.2c-.04.35-.04.72,0,1.1.04.38.13.73.27,1.06.15.32.35.59.63.8.27.21.63.32,1.06.33.46.01.87-.08,1.23-.27.35-.2.65-.46.9-.79.25-.33.45-.7.6-1.1.15-.4.25-.8.3-1.2l.02-.19c.04-.35.04-.72,0-1.1-.03-.39-.12-.74-.27-1.07-.14-.34-.35-.61-.62-.81-.27-.21-.63-.32-1.07-.34-.46-.02-.88.08-1.23.28-.35.2-.65.46-.9.8-.25.34-.44.71-.6,1.12-.15.4-.24.8-.29,1.2ZM141.29,38.81l-1.32,7.58h-1.52l1.58-9.08h1.48l-.22,1.49ZM144.24,37.24l-.14,1.46c-.12-.02-.24-.04-.36-.06-.12-.02-.24-.03-.35-.03-.36,0-.69.05-.98.17-.28.11-.54.27-.76.48-.22.21-.41.45-.56.73-.15.28-.27.58-.36.91l-.48.25c.06-.45.16-.92.3-1.39.15-.48.34-.91.6-1.32.26-.4.58-.73.96-.97.39-.25.86-.36,1.41-.34.12,0,.24.01.36.03.12.02.25.05.37.08ZM148.74,33.51l-2.24,12.89h-1.53l2.24-12.89h1.53ZM153.52,37.31l-4.5,4.16-2.71,2.44.18-1.8,1.81-1.85,3.23-2.96h1.98ZM150.56,46.39l-2.45-4.41.96-1.3,3.15,5.71h-1.66ZM159.89,43.93c.05-.35-.01-.62-.19-.81-.17-.2-.4-.34-.69-.44-.28-.11-.55-.19-.82-.26-.34-.08-.67-.19-1.01-.31-.34-.12-.65-.28-.94-.47-.28-.2-.5-.44-.67-.72-.16-.29-.24-.64-.22-1.06.02-.45.14-.84.35-1.18.22-.34.5-.63.84-.86.35-.23.72-.4,1.13-.51.41-.11.81-.17,1.22-.16.57.01,1.09.13,1.55.35.47.22.84.55,1.12.96.27.42.4.93.39,1.53h-1.5c.01-.33-.05-.6-.19-.83-.14-.23-.33-.41-.58-.53-.25-.13-.52-.2-.84-.2-.3,0-.59.04-.87.14-.29.1-.53.25-.73.45-.2.2-.32.46-.37.79-.03.24,0,.44.11.6.11.15.25.27.44.37.19.09.39.17.6.23.21.06.4.11.58.15.46.13.91.29,1.36.49.45.2.81.47,1.09.81.28.34.4.79.38,1.35-.02.48-.15.89-.38,1.24-.22.35-.51.63-.87.86-.35.22-.74.39-1.17.49s-.85.16-1.27.15c-.59-.01-1.14-.13-1.65-.36-.5-.23-.91-.57-1.21-1.01-.3-.44-.44-.98-.43-1.61h1.52c0,.37.07.68.23.93.16.25.37.43.65.56.27.13.59.2.94.2.3,0,.6-.03.91-.12.31-.08.58-.22.81-.42.23-.2.37-.47.42-.81Z"/>
  </g>
</svg>